<svg width="150" height="40" viewBox="0 0 150 40" fill="none" xmlns="http://www.w3.org/2000/svg">
<path d="M45.4586 14.552H31.9166V18.545H41.5465C41.065 24.1715 36.3704 26.652 31.9768 26.652C26.3193 26.652 21.384 22.175 21.384 15.9435C21.384 9.83299 26.0785 5.11399 31.9768 5.11399C36.551 5.11399 39.1992 8.01799 39.1992 8.01799L41.9678 5.11399C41.9678 5.11399 38.3566 1.12099 31.7962 1.12099C23.4303 1.06049 16.9904 8.13899 16.9904 15.8225C16.9904 23.3245 23.0692 30.645 32.037 30.645C39.9214 30.645 45.6993 25.2605 45.6993 17.214C45.6993 15.52 45.4586 14.552 45.4586 14.552Z" fill="#AEC0CE"/>
<path fill-rule="evenodd" clip-rule="evenodd" d="M46.9633 21.0254C46.9633 15.9434 50.9356 11.5874 56.4727 11.5874C61.0469 11.5874 65.9822 14.8544 66.0424 21.1464C66.0424 26.7124 61.8293 30.6449 56.5931 30.6449C50.8152 30.6449 46.9633 26.2284 46.9633 21.0254ZM61.8293 21.1464C61.8293 17.6374 59.2413 15.3989 56.5329 15.3989C53.4634 15.3989 51.1161 17.8189 51.1763 21.0859C51.1763 24.4739 53.5236 26.8939 56.5329 26.8939C59.3015 26.8939 61.8293 24.6554 61.8293 21.1464Z" fill="#AEC0CE"/>
<path fill-rule="evenodd" clip-rule="evenodd" d="M67.6674 21.0254C67.6674 15.9434 71.6397 11.5874 77.1768 11.5874C81.751 11.5874 86.6863 14.8544 86.7465 21.1464C86.7465 26.7124 82.5334 30.6449 77.2972 30.6449C71.5193 30.6449 67.6674 26.2284 67.6674 21.0254ZM82.5334 21.1464C82.5334 17.6374 79.9454 15.3989 77.237 15.3989C74.1675 15.3989 71.8202 17.8189 71.8804 21.0859C71.8804 24.4739 74.2277 26.8939 77.237 26.8939C80.0056 26.8939 82.5334 24.6554 82.5334 21.1464Z" fill="#AEC0CE"/>
<path fill-rule="evenodd" clip-rule="evenodd" d="M88.3716 21.1465C88.3716 16.1249 92.3439 11.6479 97.4597 11.6479C99.6867 11.6479 101.372 12.4949 102.455 13.8259V12.1924H106.428V29.3139C106.428 36.0294 102.576 39.236 97.5199 39.236C92.8856 39.236 90.2976 36.3925 89.0336 33.67L92.705 32.1574C93.2467 33.3675 94.6912 35.5455 97.5801 35.5455C100.589 35.5455 102.576 33.549 102.576 30.2819V28.4065C101.432 29.677 100.048 30.7055 97.3394 30.7055C93.0059 30.7055 88.3716 26.8335 88.3716 21.1465ZM102.877 21.2069C102.877 17.5769 100.289 15.3989 97.8209 15.3989C95.1727 15.3989 92.5846 17.5164 92.5245 21.2674C92.5245 24.716 95.0523 26.9544 97.7607 26.9544C100.349 26.9544 102.877 24.9579 102.877 21.2069Z" fill="#AEC0CE"/>
<path fill-rule="evenodd" clip-rule="evenodd" d="M115.395 21.0859C115.395 15.3989 119.428 11.5874 124.243 11.5874C127.974 11.5874 130.803 14.1284 132.067 17.0324L132.729 18.6054L120.03 23.9294C120.812 25.3814 122.016 26.8334 124.664 26.8334C127.011 26.8334 128.456 25.5629 129.298 24.2319L132.609 26.4704C131.164 28.4064 128.636 30.6449 124.664 30.6449C119.909 30.6449 115.395 27.0754 115.395 21.0859ZM127.914 17.3349C127.312 16.1854 126.109 15.2779 124.363 15.2779C121.655 15.2779 119.007 18.1214 119.488 20.9044L127.914 17.3349Z" fill="#AEC0CE"/>
<path d="M109.377 30.1006H113.53V2.02856H109.377V30.1006Z" fill="#AEC0CE"/>
</svg>
