<svg width="150" height="40" viewBox="0 0 150 40" fill="none" xmlns="http://www.w3.org/2000/svg">
<path d="M32.2388 3.96224C31.709 2.22652 29.8549 1.2919 28.1332 1.82596C26.4115 2.36003 25.4845 4.22927 26.0142 5.965L34.4902 32.2679C35.0862 33.8701 36.8079 34.8047 38.4634 34.3374C40.1851 33.8033 41.2446 32.0009 40.7148 30.2651C40.7148 30.1984 32.2388 3.96224 32.2388 3.96224Z" fill="#AEC0CE"/>
<path d="M19.1275 8.3016C18.5977 6.56587 16.7436 5.63125 15.0219 6.16532C13.3002 6.69939 12.3731 8.56863 12.9029 10.3044L21.3789 36.6073C21.9749 38.2095 23.6966 39.1441 25.352 38.6768C27.0737 38.1427 28.1332 36.3402 27.6035 34.6045C27.6035 34.5377 19.1275 8.3016 19.1275 8.3016Z" fill="#AEC0CE"/>
<path d="M42.9663 25.7922C44.688 25.2581 45.6151 23.3889 45.0853 21.6532C44.5556 19.9174 42.7014 18.9828 40.9798 19.5169L14.8233 27.9952C13.234 28.5961 12.307 30.3318 12.7705 32.0007C13.3002 33.7365 15.0882 34.8046 16.8099 34.2705C16.9423 34.2705 42.9663 25.7922 42.9663 25.7922Z" fill="#AEC0CE"/>
<path d="M20.2532 33.2025C21.9749 32.6684 24.1601 31.9341 26.4778 31.133C25.9481 29.3973 25.2196 27.1942 24.425 24.8577L18.2004 26.9272L20.2532 33.2025Z" fill="#AEC0CE"/>
<path d="M33.4307 28.8631C35.8146 28.062 37.9998 27.3944 39.6553 26.7936C39.1255 25.0579 38.3971 22.8549 37.6025 20.5183L31.3779 22.5878L33.4307 28.8631Z" fill="#AEC0CE"/>
<path d="M38.6621 12.5073C40.3838 11.9732 41.3108 10.104 40.7811 8.36825C40.2513 6.63252 38.3972 5.6979 36.6755 6.23197L10.5852 14.7771C8.99599 15.3779 8.06893 17.1136 8.53246 18.7826C9.06221 20.5851 10.8501 21.6532 12.5718 21.0524C12.638 21.0524 38.6621 12.5073 38.6621 12.5073Z" fill="#AEC0CE"/>
<path d="M16.0152 19.9176C17.7369 19.3835 19.9221 18.6492 22.2398 17.8481C21.4451 15.4448 20.7829 13.2417 20.187 11.5728L13.9624 13.6423L16.0152 19.9176Z" fill="#AEC0CE"/>
<path d="M29.1265 15.6449C31.5104 14.8438 33.6956 14.1762 35.3511 13.5754C34.5565 11.172 33.8943 8.96901 33.2983 7.30005L27.0737 9.36957L29.1265 15.6449Z" fill="#AEC0CE"/>
<path d="M69.3876 10.9052C70.5134 11.4392 70.6458 11.773 69.7187 13.5087C68.7917 15.3112 68.593 15.378 67.4011 14.9107C65.9443 14.3098 64.1564 13.8425 62.9644 13.8425C61.0441 13.8425 59.7859 14.5101 59.7859 15.5783C59.7859 19.0497 70.8445 17.1805 70.8445 24.6574C70.8445 28.3959 67.666 30.866 62.8982 30.866C60.3819 30.866 57.2696 29.9981 55.1506 28.93C54.0911 28.3959 54.0249 28.0621 54.9519 26.2596C55.7466 24.7242 56.0114 24.5239 57.1371 24.9912C58.9913 25.7923 61.2427 26.3932 62.832 26.3932C64.6199 26.3932 65.7456 25.6588 65.7456 24.5907C65.7456 21.186 54.4884 22.7882 54.4884 15.5783C54.4884 11.773 57.6669 9.16943 62.3684 9.16943C64.6199 9.36971 67.4673 10.0373 69.3876 10.9052Z" fill="#AEC0CE"/>
<path d="M78.3272 2.09292V29.8645C78.3272 30.2651 77.8637 30.7324 77.2677 30.7324H74.3541C73.6919 30.7324 73.2946 30.2651 73.2946 29.8645V2.09292C73.2946 0.690991 73.6919 0.624232 75.8109 0.624232C78.1948 0.557473 78.3272 0.757749 78.3272 2.09292Z" fill="#AEC0CE"/>
<path fill-rule="evenodd" clip-rule="evenodd" d="M98.855 29.5975V17.6477C98.855 12.4405 95.3454 9.36963 89.783 9.36963C87.2667 9.36963 84.4855 10.1707 82.499 11.5059C81.4395 12.1735 81.4395 12.5073 82.499 14.1762C83.6247 15.8452 83.8233 15.912 84.8829 15.3111C86.2072 14.51 87.8627 13.976 89.2533 13.976C92.1669 13.976 93.8886 15.3111 93.8886 17.5142V18.9161C92.498 18.3153 90.7763 17.9815 88.9222 17.9815C83.9558 17.9815 80.7111 20.6518 80.7111 24.6574C80.7111 28.3958 83.6247 30.9327 87.9289 30.9327C90.1804 30.9327 92.4318 29.998 93.9548 28.2623L93.8886 29.5307C93.8224 30.1983 94.2859 30.6656 94.9481 30.6656H97.7955C98.3915 30.6656 98.855 30.2651 98.855 29.5975ZM88.5249 26.9271C86.737 26.9271 85.545 25.9925 85.545 24.5906C85.545 22.8549 87.333 21.5197 89.9817 21.5197C91.2399 21.5197 92.6967 21.72 93.8224 22.1873V24.0565C92.6967 25.859 90.7101 26.9271 88.5249 26.9271Z" fill="#AEC0CE"/>
<path d="M118.522 10.9719C119.582 11.5728 119.582 11.9066 118.456 13.709C117.396 15.378 117.198 15.5115 116.006 14.9107C115.145 14.4434 113.688 14.0428 112.562 14.0428C108.92 14.0428 106.536 16.4461 106.536 20.1179C106.536 23.9231 108.92 26.4599 112.562 26.4599C113.82 26.4599 115.41 25.9926 116.403 25.3918C117.463 24.791 117.661 24.791 118.787 26.4599C119.78 27.9954 119.78 28.3292 118.853 28.9968C117.264 30.1317 114.681 30.9995 112.43 30.9995C105.742 30.9995 101.239 26.6602 101.239 20.1846C101.239 13.709 105.742 9.43648 112.496 9.43648C114.615 9.36972 116.999 10.0373 118.522 10.9719Z" fill="#AEC0CE"/>
<path d="M140.44 28.0621C141.301 29.1302 140.97 29.5308 138.851 30.2651C136.732 31.0662 136.401 30.9994 135.673 29.9981L129.647 21.9203L126.932 24.5239V29.7978C126.932 30.1983 126.468 30.6656 125.872 30.6656H122.959C122.296 30.6656 121.899 30.1983 121.899 29.7978V2.09296C121.899 0.691026 122.296 0.624268 124.415 0.624268C126.866 0.624268 126.932 0.824543 126.932 2.09296V17.848L135.143 9.90372C136.07 9.03585 136.534 9.10261 138.189 10.1708C139.977 11.3056 140.109 11.6394 139.249 12.5073L133.156 18.5156L140.44 28.0621Z" fill="#AEC0CE"/>
</svg>
