<svg width="150" height="40" viewBox="0 0 150 40" fill="none" xmlns="http://www.w3.org/2000/svg">
<path fill-rule="evenodd" clip-rule="evenodd" d="M50.042 27.5826L50.0421 27.5829C50.5622 28.9081 50.6778 30.1757 50.5044 31.4433C50.0998 34.0938 48.3661 36.3986 45.8233 37.4357C44.8986 37.839 43.9162 38.0119 42.876 38.0119C42.587 38.0119 42.2403 38.0119 41.9513 37.9543C40.7377 37.8391 39.5241 37.4357 38.3105 36.7443C36.8657 35.9376 35.4209 34.7276 33.8028 32.999C32.1846 34.7276 30.7976 35.9376 29.2951 36.7443C28.0815 37.4357 26.8678 37.7814 25.6542 37.9543C25.5098 37.9543 25.3508 37.9687 25.1919 37.9831C25.033 37.9975 24.8741 38.0119 24.7296 38.0119C23.6893 38.0119 22.7069 37.839 21.7822 37.4357C19.2972 36.3986 17.4479 34.1514 17.0434 31.4433C16.87 30.1181 17.0434 28.8505 17.5057 27.5829C17.6791 27.0643 17.8524 26.661 18.0258 26.2576L18.0258 26.2576C18.3148 25.6238 18.6037 24.99 18.8349 24.4138L18.8927 24.3562C21.4355 18.94 24.0939 13.4662 26.8678 8.05L26.9834 7.81952C27.2724 7.30097 27.5613 6.72481 27.8503 6.14864L27.8503 6.14857C27.9281 6.02663 28.0059 5.90257 28.0846 5.77718C28.4148 5.25085 28.7594 4.7014 29.1795 4.18952C30.3931 2.80667 32.0112 2 33.8028 2C35.5365 2 37.2124 2.80667 38.3683 4.24714C38.9462 4.88095 39.3507 5.57238 39.6975 6.20619C39.9864 6.78238 40.2754 7.35857 40.5643 7.87714L40.6799 8.10762C43.5117 13.5238 46.1701 18.9976 48.6551 24.4138H48.7129C48.944 24.99 49.233 25.6238 49.5219 26.2576L49.5219 26.2576C49.6953 26.6609 49.8686 27.1217 50.042 27.5826ZM77.9551 11.0462C77.9551 12.3714 76.9149 13.4086 75.5857 13.4086C74.2565 13.4086 73.2163 12.3714 73.2163 11.0462C73.2163 9.72095 74.2565 8.68381 75.5857 8.68381C76.9727 8.74143 77.9551 9.77857 77.9551 11.0462ZM68.304 15.771V16.3471C68.304 16.3471 67.206 14.9067 64.7788 14.9067C60.849 14.9067 57.7861 17.9029 57.7861 22.0514C57.7861 26.1424 60.849 29.1962 64.7788 29.1962C67.206 29.1962 68.304 27.6981 68.304 27.6981V28.3319C68.304 28.62 68.5352 28.8505 68.8241 28.8505H71.7715V15.2524H68.8241C68.4774 15.2524 68.304 15.4829 68.304 15.771ZM65.3567 25.9119C66.6859 25.9119 67.7839 25.2205 68.304 24.4138V19.5738C67.7839 18.8248 66.6281 18.0757 65.3567 18.0757C63.045 18.0757 61.2535 19.5162 61.2535 21.9938C61.2535 24.4714 63.045 25.9119 65.3567 25.9119ZM73.852 15.2524H77.3194V28.7929H73.852V15.2524ZM122.165 16.3471C122.165 16.3471 123.321 14.9067 125.691 14.9067C129.62 14.9067 132.683 17.9029 132.683 21.9938C132.683 26.0848 129.62 29.1386 125.691 29.1386C123.263 29.1386 122.165 27.6405 122.165 27.6405V28.2743C122.165 28.5624 121.934 28.7929 121.645 28.7929H118.698V8.74143H122.165V16.3471ZM125.113 25.8543C123.783 25.8543 122.743 25.1629 122.165 24.3562V19.5162C122.685 18.7671 123.841 18.0181 125.113 18.0181C127.424 18.0181 129.216 19.4586 129.216 21.9362C129.216 24.4138 127.424 25.8543 125.113 25.8543ZM116.906 28.8505V20.7838C116.906 18.479 116.444 17.2114 115.288 16.2319C114.248 15.3676 112.977 14.9067 111.474 14.9067C110.145 14.9067 108.816 15.31 107.775 16.3471V15.771C107.775 15.4829 107.544 15.2524 107.255 15.2524H104.481V28.8505H107.949V19.401C108.642 18.5943 109.74 18.0757 110.78 18.0757C112.688 18.0757 113.439 18.94 113.439 21.1871V28.8505H116.906ZM96.0437 14.9067C93.6743 14.9067 92.5185 16.3471 92.5185 16.3471V8.74143H89.051V28.7929H91.9984C92.2873 28.7929 92.5185 28.5624 92.5185 28.2743V27.6405C92.5185 27.6405 93.6165 29.1386 96.0437 29.1386C99.9735 29.1386 103.036 26.0848 103.036 21.9938C103.094 17.9029 100.031 14.9067 96.0437 14.9067ZM92.5185 24.3562C93.0964 25.1629 94.1366 25.8543 95.4658 25.8543C97.7775 25.8543 99.569 24.4138 99.569 21.9362C99.569 19.4586 97.7775 18.0181 95.4658 18.0181C94.1944 18.0181 93.0386 18.7671 92.5185 19.5162V24.3562ZM86.1037 14.9067C87.1439 14.9067 87.7218 15.0795 87.7218 15.0795V18.3062C87.7218 18.3062 84.8323 17.3267 83.0407 19.401V28.8505H79.5733V15.2524H82.5206C82.8096 15.2524 83.0407 15.4829 83.0407 15.771V16.3471C83.6187 15.5981 85.0056 14.9067 86.1037 14.9067ZM33.745 29.4267C31.7801 26.949 30.5087 24.6443 30.1041 22.7429C29.9308 21.9362 29.873 21.1871 29.9886 20.5533C30.0464 19.9771 30.2775 19.4586 30.5665 19.0552C31.26 18.0757 32.4158 17.4419 33.745 17.4419C35.0742 17.4419 36.2878 18.0181 36.9235 19.0552C37.2124 19.5162 37.4436 19.9771 37.5014 20.5533C37.617 21.1871 37.5592 21.9362 37.3858 22.7429C36.9813 24.6443 35.7099 26.949 33.745 29.4267ZM44.8986 35.3614C46.6902 34.67 47.9616 33.0567 48.1927 31.1552C48.3083 30.1757 48.1927 29.3114 48.0194 28.3895C47.9568 28.2024 47.8773 28.0152 47.79 27.8098C47.7161 27.6357 47.6365 27.4485 47.557 27.2371C47.4126 26.949 47.2825 26.6465 47.1525 26.344C47.0225 26.0415 46.8924 25.739 46.748 25.451V25.3933C44.2629 20.0348 41.6046 14.561 38.8306 9.20238L38.715 8.9719C38.4261 8.39571 38.1371 7.81952 37.8481 7.30095C37.5592 6.72476 37.2124 6.14857 36.8079 5.68762C36.0566 4.82333 35.0164 4.36238 33.9184 4.36238C32.8203 4.36238 31.7801 4.82333 31.0288 5.68762C30.6243 6.20619 30.2775 6.72476 29.9886 7.30095L29.9885 7.30107C29.6996 7.87722 29.4106 8.45337 29.1217 8.9719L29.0061 9.20238C26.1743 14.561 23.516 20.0348 21.0309 25.3933L20.9732 25.451C20.6842 26.0271 20.3952 26.661 20.1641 27.2371L20.1641 27.2372C19.9907 27.6405 19.8173 28.0438 19.7018 28.3895C19.2972 29.4267 19.2394 30.291 19.355 31.2129C19.5862 33.0567 20.8576 34.67 22.6491 35.419C23.4582 35.7071 24.3828 35.88 25.3653 35.7648C26.2899 35.6495 27.2146 35.3614 28.1392 34.8429C29.4106 34.0938 30.7398 32.999 32.2424 31.3281C29.873 28.3895 28.3704 25.6814 27.8503 23.319C27.5613 22.2243 27.5035 21.1871 27.6769 20.2652C27.8503 19.3433 28.1392 18.5367 28.6594 17.7876C29.7574 16.2319 31.6645 15.2524 33.745 15.2524C35.8255 15.2524 37.7326 16.1743 38.8306 17.7876C39.3507 18.5367 39.6397 19.3433 39.813 20.2652C39.9286 21.1871 39.8708 22.2243 39.6397 23.319C39.0618 25.6814 37.617 28.3319 35.2475 31.2705C36.7501 32.9414 38.0215 34.0362 39.3507 34.7852C40.3332 35.3038 41.2 35.5919 42.1247 35.7071C43.1071 35.8224 44.0318 35.7071 44.8986 35.3614Z" fill="#AEC0CE"/>
</svg>
