<svg width="150" height="40" viewBox="0 0 150 40" fill="none" xmlns="http://www.w3.org/2000/svg">
<path fill-rule="evenodd" clip-rule="evenodd" d="M29.8895 34.1833L29.8895 34.1833L29.8894 34.1833C29.2208 34.2519 28.5421 34.3214 27.8472 34.407L22.2715 18.2766V35.0934C20.5291 35.265 18.9609 35.4938 17.2766 35.7798V4.94897H21.923L28.2537 22.4522V4.94897H33.1905V33.7778C32.0997 33.9568 31.009 34.0686 29.8897 34.1833L29.8896 34.1833L29.8896 34.1833L29.8895 34.1833ZM46.2632 16.2153H46.2632L46.2633 16.2153C47.4173 16.1874 48.5444 16.1602 49.3949 16.1602V20.965C47.2459 20.965 44.6904 20.965 42.8318 21.0794V28.2294C43.7369 28.1748 44.6478 28.1144 45.5628 28.0538L45.5629 28.0538L45.5631 28.0538H45.5632H45.5632H45.5632H45.5632C47.5251 27.9238 49.5054 27.7926 51.4857 27.7146V32.3478L37.9531 33.3774V4.94897H51.4857V9.75377H42.8318V16.2746C43.8129 16.2746 45.0527 16.2446 46.263 16.2153H46.2631H46.2631H46.2632H46.2632ZM64.5537 9.81097H69.6067C69.6067 9.81097 69.6067 4.94897 69.6648 4.94897H54.6221V9.81097H59.675V32.0046C61.2432 31.9474 62.9275 31.9474 64.5537 31.9474V9.81097ZM77.5637 15.9314H84.2429V20.7362H77.5637V31.6614H72.743V4.94897H86.3918V9.75377H77.5637V15.9314ZM99.4136 27.6585C97.734 27.5613 96.0414 27.4633 94.3488 27.4286V4.94897H89.4701V31.9474C93.9422 32.0618 98.2982 32.2906 102.654 32.5766V27.829C101.582 27.784 100.5 27.7214 99.4136 27.6585ZM108.426 33.0252L108.427 33.0252C109.473 33.0876 110.536 33.1508 111.599 33.263V4.94897H106.778V32.9198C107.321 32.9594 107.871 32.9922 108.426 33.0252ZM126.757 19.5922L132.972 4.94897H127.571L124.144 13.0142L120.949 4.94897H115.722L121.414 19.4206L115.141 33.4918C115.838 33.5833 116.535 33.6565 117.232 33.7297C118.278 33.8396 119.323 33.9494 120.369 34.121L123.97 25.9414L127.454 34.8646C128.105 34.9647 128.749 35.0719 129.391 35.1787C130.581 35.3769 131.764 35.5739 132.972 35.7226L126.757 19.5922Z" fill="#AEC0CE"/>
</svg>
