<svg width="150" height="40" viewBox="0 0 150 40" fill="none" xmlns="http://www.w3.org/2000/svg">
<path d="M35.0742 9.23644V22.8869C35.0742 27.4371 33.1093 29.3281 28.486 29.3281C23.8627 29.3281 21.8978 27.4371 21.8978 22.8869V8.64551H17.4479C17.0434 8.64551 16.87 8.82279 16.87 9.23644V23.0642C16.87 30.6872 21.6089 33.3464 28.486 33.3464C35.3631 33.3464 40.102 30.6872 40.102 23.0642V8.64551H35.6521C35.3053 8.64551 35.0742 8.82279 35.0742 9.23644Z" fill="#AEC0CE"/>
<path d="M99.6268 12.6047C99.9735 12.6047 100.147 12.4866 100.263 12.1911L101.534 8.94097C101.592 8.76369 101.534 8.64551 101.361 8.64551H83.4453C81.7694 8.64551 81.1337 9.17735 81.1337 10.3592V31.5145C81.1337 32.5191 81.596 32.9327 82.9252 32.9327H99.6268C99.9735 32.9327 100.147 32.8146 100.263 32.5191L101.534 29.269C101.592 29.0917 101.534 28.9735 101.361 28.9735H86.0459V24.6597C86.0459 23.1824 86.855 22.4733 88.9932 22.4733H95.6392C95.986 22.4733 96.1593 22.3551 96.2749 22.0596L97.4885 18.9277C97.5463 18.7504 97.4885 18.6322 97.3152 18.6322H85.9881V12.6047H99.6268Z" fill="#AEC0CE"/>
<path fill-rule="evenodd" clip-rule="evenodd" d="M70.8468 14.7912C70.8468 17.0958 70.0378 19.0459 68.0729 20.1096C70.7312 20.8778 71.9449 23.3006 71.8871 26.1961C71.8871 31.0418 68.5352 32.9327 63.8541 32.9327H51.429C50.0998 32.9327 49.6375 32.5191 49.6375 31.5145V10.3592C49.6375 9.17735 50.2732 8.64551 51.9492 8.64551H62.1204C66.5703 8.64551 70.8468 9.41372 70.8468 14.7912ZM54.6075 12.5456H62.4671C65.0677 12.5456 65.819 13.5502 65.819 15.6776C65.819 17.7458 65.0677 18.8095 62.4671 18.8095H54.6075V12.5456ZM63.3918 29.0326H54.6075V24.6006C54.6075 23.1233 55.4166 22.4142 57.5549 22.4142H63.3918C66.1658 22.4142 66.9748 23.537 66.9748 25.7234C66.9748 27.9689 66.1658 29.0326 63.3918 29.0326Z" fill="#AEC0CE"/>
<path fill-rule="evenodd" clip-rule="evenodd" d="M127.309 23.1824L132.625 32.5191C132.741 32.6373 132.741 32.9327 132.337 32.9327H127.829C127.496 32.9327 127.376 32.769 127.213 32.5464C127.207 32.5374 127.2 32.5283 127.193 32.5191L122.396 23.6551H118.004C115.866 23.6551 115.057 24.3643 115.057 25.8416V32.9327H110.723C110.318 32.9327 110.145 32.7555 110.145 32.3418V10.3592C110.145 9.17735 110.78 8.64551 112.456 8.64551H122.628C128.522 8.64551 132.105 10.241 132.105 16.1503C132.105 20.7005 129.967 22.4733 127.309 23.1824ZM115.057 19.9323H123.321C126.442 19.9323 127.078 18.6913 127.078 16.2094C127.078 13.7866 126.384 12.5456 123.321 12.5456H115.057V19.9323Z" fill="#AEC0CE"/>
</svg>
