<svg width="420" height="360" viewBox="0 0 420 360" fill="none" xmlns="http://www.w3.org/2000/svg">
<mask id="mask0_137_206" style="mask-type:alpha" maskUnits="userSpaceOnUse" x="0" y="0" width="420" height="360">
<rect width="420" height="360" fill="#00B8D9"/>
</mask>
<g mask="url(#mask0_137_206)">
<g opacity="0.07">
<path d="M820.347 348C820.347 572.226 638.419 754 413.995 754C189.571 754 7.64282 572.226 7.64282 348C7.64282 123.774 189.571 -58 413.995 -58C638.419 -58 820.347 123.774 820.347 348Z" fill="#09BDDD" stroke="white" stroke-width="4"/>
<path d="M754.931 347.01C754.931 535.686 601.847 688.641 413.004 688.641C224.161 688.641 71.076 535.686 71.076 347.01C71.076 158.334 224.161 5.37866 413.004 5.37866C601.847 5.37866 754.931 158.334 754.931 347.01Z" fill="#09BDDD" stroke="white" stroke-width="4"/>
<path d="M697.445 348C697.445 504.408 570.542 631.204 413.995 631.204C257.448 631.204 130.545 504.408 130.545 348C130.545 191.592 257.448 64.7961 413.995 64.7961C570.542 64.7961 697.445 191.592 697.445 348Z" fill="#09BDDD" stroke="white" stroke-width="4"/>
<path d="M641.941 348C641.941 473.78 539.887 575.748 413.995 575.748C288.102 575.748 186.049 473.78 186.049 348C186.049 222.22 288.102 120.252 413.995 120.252C539.887 120.252 641.941 222.22 641.941 348Z" fill="#09BDDD" stroke="white" stroke-width="4"/>
<path d="M584.454 348C584.454 442.058 508.139 518.311 413.995 518.311C319.851 518.311 243.536 442.058 243.536 348C243.536 253.942 319.851 177.689 413.995 177.689C508.139 177.689 584.454 253.942 584.454 348Z" fill="#09BDDD" stroke="white" stroke-width="4"/>
<path d="M541.621 348C541.621 418.423 484.483 475.515 413.995 475.515C343.507 475.515 286.369 418.423 286.369 348C286.369 277.577 343.507 220.485 413.995 220.485C484.483 220.485 541.621 277.577 541.621 348Z" fill="#09BDDD" stroke="white" stroke-width="4"/>
<path d="M485.262 348C485.262 387.323 453.356 419.204 413.995 419.204C374.634 419.204 342.728 387.323 342.728 348C342.728 308.677 374.634 276.796 413.995 276.796C453.356 276.796 485.262 308.677 485.262 348Z" stroke="white" stroke-width="4"/>
</g>
</g>
</svg>
